<svg width="25" height="25" viewBox="0 0 25 25" fill="none" xmlns="http://www.w3.org/2000/svg">
<path d="M21.9906 9.41241L21.9656 9.24441L21.9396 9.25041C21.7619 8.41944 21.3525 7.65577 20.7589 7.04776C20.1653 6.43974 19.4116 6.01223 18.5852 5.81469C17.7587 5.61715 16.8932 5.65765 16.0888 5.93151C15.2844 6.20538 14.5739 6.7014 14.0397 7.3622C13.5054 8.023 13.1692 8.82156 13.0699 9.66548C12.9706 10.5094 13.1123 11.3642 13.4785 12.131C13.8448 12.8977 14.4206 13.5451 15.1395 13.9983C15.8584 14.4514 16.6908 14.6917 17.5406 14.6914C17.7636 14.6914 17.9776 14.6574 18.1906 14.6264C18.1216 14.8584 18.0506 15.0944 17.9366 15.3064C17.8226 15.6144 17.6446 15.8814 17.4676 16.1504C17.3196 16.4414 17.0586 16.6384 16.8666 16.8874C16.6656 17.1294 16.3916 17.2904 16.1746 17.4914C15.9616 17.7014 15.6826 17.8064 15.4606 17.9544C15.2286 18.0874 15.0266 18.2344 14.8106 18.3044L14.2716 18.5264L13.7976 18.7234L14.2816 20.6624L14.8786 20.5184C15.0696 20.4704 15.3026 20.4144 15.5676 20.3474C15.8386 20.2974 16.1276 20.1604 16.4496 20.0354C16.7666 19.8924 17.1356 19.7974 17.4776 19.5684C17.8216 19.3504 18.2186 19.1684 18.5686 18.8764C18.9076 18.5754 19.3166 18.3144 19.6186 17.9324C19.9486 17.5744 20.2746 17.1984 20.5276 16.7704C20.8206 16.3624 21.0196 15.9144 21.2296 15.4714C21.4196 15.0284 21.5726 14.5754 21.6976 14.1354C21.9346 13.2534 22.0406 12.4154 22.0816 11.6984C22.1156 10.9804 22.0956 10.3834 22.0536 9.95141C22.0395 9.771 22.0185 9.59119 21.9906 9.41241ZM10.9906 9.41241L10.9656 9.24441L10.9396 9.25041C10.7619 8.41944 10.3525 7.65577 9.75892 7.04776C9.16529 6.43974 8.41165 6.01223 7.58518 5.81469C6.75871 5.61715 5.89319 5.65765 5.08878 5.93151C4.28437 6.20538 3.57395 6.7014 3.0397 7.3622C2.50545 8.023 2.16922 8.82156 2.0699 9.66548C1.97059 10.5094 2.11226 11.3642 2.47851 12.131C2.84477 12.8977 3.42064 13.5451 4.1395 13.9983C4.85836 14.4514 5.69083 14.6917 6.54058 14.6914C6.76358 14.6914 6.97758 14.6574 7.19058 14.6264C7.12158 14.8584 7.05058 15.0944 6.93658 15.3064C6.82258 15.6144 6.64458 15.8814 6.46758 16.1504C6.31958 16.4414 6.05858 16.6384 5.86658 16.8874C5.66558 17.1294 5.39158 17.2904 5.17458 17.4914C4.96158 17.7014 4.68258 17.8064 4.46058 17.9544C4.22858 18.0874 4.02658 18.2344 3.81058 18.3044L3.27158 18.5264C2.97058 18.6494 2.79858 18.7214 2.79858 18.7214L3.28258 20.6604L3.87958 20.5164C4.07058 20.4684 4.30358 20.4124 4.56858 20.3454C4.83958 20.2954 5.12858 20.1584 5.45058 20.0334C5.76758 19.8904 6.13658 19.7954 6.47858 19.5664C6.82258 19.3484 7.21958 19.1664 7.56958 18.8744C7.90858 18.5734 8.31758 18.3124 8.61958 17.9304C8.94958 17.5724 9.27558 17.1964 9.52858 16.7684C9.82158 16.3604 10.0206 15.9124 10.2306 15.4694C10.4206 15.0264 10.5736 14.5734 10.6986 14.1334C10.9356 13.2514 11.0416 12.4134 11.0826 11.6964C11.1166 10.9784 11.0966 10.3814 11.0546 9.94941C11.0396 9.7697 11.0183 9.59059 10.9906 9.41241Z" fill="white"/>
</svg>
