<svg width="96" height="16" viewBox="0 0 96 16" fill="none" xmlns="http://www.w3.org/2000/svg">
<g clip-path="url(#clip0_6246_986)">
<mask id="mask0_6246_986" style="mask-type:luminance" maskUnits="userSpaceOnUse" x="0" y="0" width="96" height="16">
<path d="M95.3516 0.239258H0.625V15.2893H95.3516V0.239258Z" fill="white"/>
</mask>
<g mask="url(#mask0_6246_986)">
<path d="M7.85235 0.727151C8.12623 0.076626 9.05905 0.0766269 9.33293 0.727153L10.9493 4.56667C11.0649 4.84092 11.326 5.0283 11.6256 5.05203L15.8214 5.38435C16.5323 5.44065 16.8205 6.31708 16.2789 6.77543L13.0822 9.48065C12.8539 9.67391 12.7541 9.97717 12.8239 10.266L13.8006 14.3109C13.966 14.9963 13.2114 15.538 12.6028 15.1707L9.01057 13.0031C8.75398 12.8482 8.43129 12.8482 8.17472 13.0031L4.58252 15.1707C3.97389 15.538 3.21922 14.9963 3.3847 14.3109L4.36136 10.266C4.43113 9.97717 4.3314 9.67391 4.10308 9.48065L0.906307 6.77543C0.364683 6.31708 0.652941 5.44065 1.36383 5.38435L5.55964 5.05203C5.85934 5.0283 6.1204 4.84092 6.23587 4.56667L7.85235 0.727151Z" fill="#F9D299"/>
<path d="M27.5476 0.727151C27.8216 0.076626 28.7544 0.0766269 29.0283 0.727153L30.6447 4.56667C30.7603 4.84092 31.0213 5.0283 31.321 5.05203L35.5167 5.38435C36.2276 5.44065 36.5158 6.31708 35.9742 6.77543L32.7775 9.48065C32.5492 9.67391 32.4494 9.97717 32.5192 10.266L33.4959 14.3109C33.6613 14.9963 32.9067 15.538 32.2981 15.1707L28.7059 13.0031C28.4493 12.8482 28.1266 12.8482 27.87 13.0031L24.2778 15.1707C23.6692 15.538 22.9145 14.9963 23.0801 14.3109L24.0567 10.266C24.1264 9.97717 24.0267 9.67391 23.7984 9.48065L20.6016 6.77543C20.06 6.31708 20.3483 5.44065 21.0591 5.38435L25.255 5.05203C25.5546 5.0283 25.8158 4.84092 25.9312 4.56667L27.5476 0.727151Z" fill="#F9D299"/>
<path d="M47.2508 0.727151C47.5247 0.076626 48.4575 0.0766269 48.7314 0.727153L50.3478 4.56667C50.4634 4.84092 50.7245 5.0283 51.0241 5.05203L55.2198 5.38435C55.9307 5.44065 56.219 6.31708 55.6773 6.77543L52.4807 9.48065C52.2523 9.67391 52.1526 9.97717 52.2223 10.266L53.199 14.3109C53.3644 14.9963 52.6099 15.538 52.0012 15.1707L48.409 13.0031C48.1524 12.8482 47.8297 12.8482 47.5732 13.0031L43.9809 15.1707C43.3724 15.538 42.6177 14.9963 42.7831 14.3109L43.7598 10.266C43.8296 9.97717 43.7299 9.67391 43.5015 9.48065L40.3048 6.77543C39.7631 6.31708 40.0514 5.44065 40.7623 5.38435L44.9581 5.05203C45.2577 5.0283 45.5189 4.84092 45.6343 4.56667L47.2508 0.727151Z" fill="#F9D299"/>
<path d="M66.9461 0.727151C67.2199 0.076626 68.1527 0.0766269 68.4267 0.727153L70.0431 4.56667C70.1586 4.84092 70.4197 5.0283 70.7193 5.05203L74.9152 5.38435C75.626 5.44065 75.9143 6.31708 75.3727 6.77543L72.176 9.48065C71.9476 9.67391 71.8479 9.97717 71.9176 10.266L72.8942 14.3109C73.0597 14.9963 72.3051 15.538 71.6965 15.1707L68.1043 13.0031C67.8477 12.8482 67.5251 12.8482 67.2685 13.0031L63.6762 15.1707C63.0676 15.538 62.313 14.9963 62.4784 14.3109L63.4551 10.266C63.5249 9.97717 63.4252 9.67391 63.1968 9.48065L60.0001 6.77543C59.4584 6.31708 59.7467 5.44065 60.4576 5.38435L64.6533 5.05203C64.953 5.0283 65.2141 4.84092 65.3295 4.56667L66.9461 0.727151Z" fill="#F9D299"/>
<path d="M86.6414 0.727151C86.9152 0.076626 87.8481 0.0766269 88.122 0.727153L89.7384 4.56667C89.8539 4.84092 90.1151 5.0283 90.4147 5.05203L94.6107 5.38435C95.3218 5.44065 95.6096 6.31708 95.0678 6.77543L91.8713 9.48065C91.6429 9.67391 91.5432 9.97717 91.6129 10.266L92.5896 14.3109C92.755 14.9963 92.0004 15.538 91.3918 15.1707L87.7996 13.0031C87.543 12.8482 87.2204 12.8482 86.9638 13.0031L83.3715 15.1707C82.7629 15.538 82.0083 14.9963 82.1737 14.3109L83.1504 10.266C83.2202 9.97717 83.1205 9.67391 82.8921 9.48065L79.6954 6.77543C79.1538 6.31708 79.442 5.44065 80.1529 5.38435L84.3487 5.05203C84.6484 5.0283 84.9094 4.84092 85.0249 4.56667L86.6414 0.727151Z" fill="#F9D299"/>
</g>
</g>
<defs>
<clipPath id="clip0_6246_986">
<rect width="95.9437" height="15.05" fill="white" transform="translate(0.015625 0.239258)"/>
</clipPath>
</defs>
</svg>
