<svg width="40" height="40" viewBox="0 0 40 40" fill="none" xmlns="http://www.w3.org/2000/svg">
<path d="M36.1301 16.1294C35.2142 16.1305 34.3283 16.4564 33.63 17.0491C32.9317 17.6418 32.4662 18.4629 32.3163 19.3665C32.2963 19.3665 32.2795 19.3549 32.2595 19.3549H30.9693C30.9577 19.3549 30.948 19.3607 30.9371 19.3614C30.7959 16.9018 29.8261 14.5626 28.1857 12.7246C28.1902 12.7201 28.196 12.7194 28.1999 12.7149L30.7803 10.1345C30.8372 10.0769 30.8823 10.0087 30.9132 9.93388C31.3169 10.1867 31.7832 10.3216 32.2595 10.3235C32.7699 10.3235 33.2688 10.1722 33.6931 9.88865C34.1174 9.60511 34.4482 9.20211 34.6435 8.7306C34.8388 8.2591 34.8899 7.74027 34.7903 7.23972C34.6908 6.73917 34.445 6.27939 34.0841 5.91852C33.7232 5.55764 33.2635 5.31188 32.7629 5.21232C32.2624 5.11275 31.7435 5.16385 31.272 5.35916C30.8005 5.55446 30.3975 5.8852 30.114 6.30954C29.8304 6.73388 29.6791 7.23278 29.6791 7.74313C29.6802 8.21919 29.8143 8.68548 30.0662 9.08945C29.9913 9.12035 29.9232 9.16548 29.8655 9.22234L27.2852 11.8027C27.2806 11.8066 27.28 11.8124 27.2755 11.8169C25.4381 10.1771 23.0999 9.20736 20.6413 9.06558C20.6413 9.05461 20.6477 9.04494 20.6477 9.03333V6.45293C20.6448 6.43118 20.6405 6.40964 20.6348 6.38842C21.4198 6.23153 22.1183 5.78838 22.5947 5.14511C23.0711 4.50184 23.2913 3.70442 23.2124 2.90785C23.1336 2.11128 22.7614 1.37248 22.1682 0.835058C21.575 0.297638 20.8031 0 20.0026 0C19.2022 0 18.4303 0.297638 17.8371 0.835058C17.2438 1.37248 16.8716 2.11128 16.7928 2.90785C16.714 3.70442 16.9342 4.50184 17.4106 5.14511C17.8869 5.78838 18.5855 6.23153 19.3704 6.38842C19.3648 6.40964 19.3605 6.43118 19.3575 6.45293V9.03333C19.3575 9.04494 19.3633 9.05461 19.364 9.06558C16.9045 9.20678 14.5652 10.1765 12.7272 11.8169C12.7227 11.8124 12.722 11.8066 12.7175 11.8027L6.91165 5.99685C6.854 5.93999 6.78586 5.89486 6.71102 5.86396C6.96381 5.46026 7.09877 4.99395 7.10066 4.51764C7.10066 4.00728 6.94932 3.50839 6.66579 3.08405C6.38225 2.6597 5.97925 2.32897 5.50774 2.13366C5.03624 1.93836 4.5174 1.88726 4.01686 1.98682C3.51631 2.08639 3.05653 2.33215 2.69565 2.69302C2.33478 3.0539 2.08902 3.51368 1.98945 4.01423C1.88989 4.51477 1.94099 5.03361 2.13629 5.50511C2.3316 5.97662 2.66233 6.37962 3.08668 6.66316C3.51102 6.94669 4.00991 7.09803 4.52027 7.09803C4.99633 7.09691 5.46262 6.96286 5.86659 6.71097C5.89749 6.78581 5.94262 6.85395 5.99948 6.9116L11.8054 12.7175C11.8092 12.722 11.815 12.7226 11.8196 12.7272C10.1797 14.5645 9.20999 16.9027 9.06821 19.3614C9.05725 19.3614 9.04757 19.3549 9.03596 19.3549H7.74576C7.72576 19.3549 7.70899 19.3646 7.68899 19.3665C7.52998 18.4081 7.01636 17.5445 6.25011 16.9472C5.48386 16.35 4.52102 16.0627 3.55277 16.1425C2.58453 16.2223 1.68169 16.6632 1.02352 17.3778C0.365355 18.0925 0 19.0285 0 20C0 20.9715 0.365355 21.9075 1.02352 22.6222C1.68169 23.3368 2.58453 23.7778 3.55277 23.8575C4.52102 23.9373 5.48386 23.65 6.25011 23.0528C7.01636 22.4555 7.52998 21.5919 7.68899 20.6335C7.70899 20.6335 7.72576 20.6451 7.74576 20.6451H9.03596C9.04757 20.6451 9.05725 20.6393 9.06821 20.6386C9.2079 23.0798 10.1642 25.4032 11.7834 27.2354C11.8147 27.2817 11.8522 27.3234 11.895 27.3593C13.8194 29.4845 16.5018 30.7685 19.364 30.9344C19.364 30.9454 19.3575 30.9551 19.3575 30.9667V33.5471C19.3605 33.5688 19.3648 33.5904 19.3704 33.6116C18.5855 33.7685 17.8869 34.2116 17.4106 34.8549C16.9342 35.4982 16.714 36.2956 16.7928 37.0922C16.8716 37.8887 17.2438 38.6275 17.8371 39.1649C18.4303 39.7024 19.2022 40 20.0026 40C20.8031 40 21.575 39.7024 22.1682 39.1649C22.7614 38.6275 23.1336 37.8887 23.2124 37.0922C23.2913 36.2956 23.0711 35.4982 22.5947 34.8549C22.1183 34.2116 21.4198 33.7685 20.6348 33.6116C20.6405 33.5904 20.6448 33.5688 20.6477 33.5471V30.9667C20.6477 30.9551 20.6419 30.9454 20.6413 30.9344C23.1008 30.7932 25.44 29.8235 27.2781 28.1831C27.2826 28.1876 27.2832 28.1934 27.2877 28.1973L29.8681 30.7777C29.9258 30.8345 29.9939 30.8797 30.0688 30.9105C29.816 31.3142 29.681 31.7806 29.6791 32.2569C29.6791 32.7672 29.8304 33.2661 30.114 33.6905C30.3975 34.1148 30.8005 34.4455 31.272 34.6408C31.7435 34.8361 32.2624 34.8872 32.7629 34.7877C33.2635 34.6881 33.7232 34.4424 34.0841 34.0815C34.445 33.7206 34.6908 33.2608 34.7903 32.7603C34.8899 32.2597 34.8388 31.7409 34.6435 31.2694C34.4482 30.7979 34.1174 30.3949 33.6931 30.1114C33.2688 29.8278 32.7699 29.6765 32.2595 29.6765C31.7834 29.6776 31.3172 29.8116 30.9132 30.0635C30.8823 29.9887 30.8372 29.9206 30.7803 29.8629L28.1999 27.2825C28.2109 27.2683 28.2147 27.2503 28.2244 27.2348C29.8426 25.4024 30.7979 23.0793 30.9371 20.6386C30.948 20.6386 30.9577 20.6451 30.9693 20.6451H32.2595C32.2795 20.6451 32.2963 20.6354 32.3163 20.6335C32.4372 21.3622 32.764 22.0411 33.2583 22.59C33.7526 23.1389 34.3936 23.5349 35.1056 23.7313C35.8177 23.9277 36.5711 23.9162 37.2768 23.6982C37.9826 23.4803 38.6112 23.0649 39.0886 22.5012C39.5659 21.9375 39.8719 21.249 39.9706 20.5169C40.0692 19.7849 39.9564 19.0399 39.6453 18.37C39.3342 17.7 38.838 17.1331 38.2151 16.7361C37.5922 16.339 36.8687 16.1285 36.1301 16.1294ZM32.2595 6.45293C32.5147 6.45293 32.7641 6.5286 32.9763 6.67037C33.1885 6.81214 33.3538 7.01364 33.4515 7.24939C33.5491 7.48515 33.5747 7.74456 33.5249 7.99483C33.4751 8.24511 33.3522 8.475 33.1718 8.65544C32.9914 8.83587 32.7615 8.95875 32.5112 9.00854C32.2609 9.05832 32.0015 9.03277 31.7658 8.93512C31.53 8.83746 31.3285 8.6721 31.1867 8.45992C31.045 8.24775 30.9693 7.99831 30.9693 7.74313C30.9693 7.40095 31.1052 7.07278 31.3472 6.83082C31.5892 6.58886 31.9173 6.45293 32.2595 6.45293ZM4.52027 5.80783C4.26509 5.80783 4.01564 5.73216 3.80347 5.5904C3.5913 5.44863 3.42593 5.24713 3.32828 5.01137C3.23063 4.77562 3.20508 4.51621 3.25486 4.26593C3.30464 4.01566 3.42752 3.78577 3.60796 3.60533C3.7884 3.42489 4.01829 3.30201 4.26856 3.25223C4.51884 3.20245 4.77825 3.228 5.014 3.32565C5.24976 3.4233 5.45126 3.58867 5.59303 3.80084C5.73479 4.01301 5.81046 4.26246 5.81046 4.51764C5.81046 4.85982 5.67453 5.18798 5.43257 5.42994C5.19061 5.6719 4.86245 5.80783 4.52027 5.80783ZM3.87517 22.5804C3.36481 22.5804 2.86592 22.4291 2.44158 22.1455C2.01723 21.862 1.6865 21.459 1.49119 20.9875C1.29589 20.516 1.24479 19.9971 1.34436 19.4966C1.44392 18.996 1.68968 18.5363 2.05055 18.1754C2.41143 17.8145 2.87121 17.5688 3.37176 17.4692C3.87231 17.3696 4.39114 17.4207 4.86264 17.616C5.33415 17.8113 5.73715 18.1421 6.02069 18.5664C6.30422 18.9908 6.45556 19.4896 6.45556 20C6.45556 20.6844 6.1837 21.3407 5.69978 21.8246C5.21586 22.3085 4.55953 22.5804 3.87517 22.5804ZM32.2595 30.9667C32.5147 30.9667 32.7641 31.0423 32.9763 31.1841C33.1885 31.3259 33.3538 31.5274 33.4515 31.7631C33.5491 31.9989 33.5747 32.2583 33.5249 32.5086C33.4751 32.7589 33.3522 32.9887 33.1718 33.1692C32.9914 33.3496 32.7615 33.4725 32.5112 33.5223C32.2609 33.5721 32.0015 33.5465 31.7658 33.4489C31.53 33.3512 31.3285 33.1858 31.1867 32.9737C31.045 32.7615 30.9693 32.512 30.9693 32.2569C30.9693 31.9147 31.1052 31.5865 31.3472 31.3446C31.5892 31.1026 31.9173 30.9667 32.2595 30.9667ZM18.0673 3.22744C18.0673 2.84467 18.1808 2.4705 18.3935 2.15225C18.6061 1.83399 18.9084 1.58594 19.262 1.43946C19.6157 1.29298 20.0048 1.25466 20.3802 1.32933C20.7556 1.404 21.1004 1.58832 21.3711 1.85898C21.6417 2.12964 21.8261 2.47447 21.9007 2.84988C21.9754 3.22529 21.9371 3.61442 21.7906 3.96805C21.6441 4.32167 21.3961 4.62393 21.0778 4.83658C20.7596 5.04923 20.3854 5.16274 20.0026 5.16274C19.4894 5.16274 18.9971 4.95884 18.6342 4.5959C18.2712 4.23296 18.0673 3.74071 18.0673 3.22744ZM21.9379 36.7726C21.9379 37.1553 21.8244 37.5295 21.6118 37.8478C21.3991 38.166 21.0969 38.4141 20.7432 38.5605C20.3896 38.707 20.0005 38.7453 19.6251 38.6707C19.2497 38.596 18.9048 38.4117 18.6342 38.141C18.3635 37.8704 18.1792 37.5255 18.1045 37.1501C18.0298 36.7747 18.0682 36.3856 18.2147 36.032C18.3611 35.6783 18.6092 35.3761 18.9274 35.1634C19.2457 34.9508 19.6199 34.8373 20.0026 34.8373C20.5159 34.8373 21.0082 35.0412 21.3711 35.4041C21.734 35.767 21.9379 36.2593 21.9379 36.7726ZM20.0026 29.6765C18.6909 29.6761 17.3931 29.4081 16.1886 28.8887C14.9841 28.3694 13.8982 27.6097 12.9975 26.6561C13.1654 25.2449 13.7522 23.9164 14.6823 22.8418C15.6124 21.7673 16.8431 20.9961 18.2157 20.6277C18.3438 20.5974 18.4595 20.5287 18.5474 20.4307C18.6353 20.3328 18.6911 20.2103 18.7074 20.0797C18.7237 19.9492 18.6997 19.8167 18.6385 19.7002C18.5774 19.5837 18.4821 19.4886 18.3654 19.4278C17.8688 19.191 17.4532 18.8129 17.1707 18.3409C16.8882 17.8689 16.7513 17.324 16.7771 16.7745C16.7771 15.9191 17.117 15.0986 17.7219 14.4937C18.3268 13.8888 19.1472 13.549 20.0026 13.549C20.8581 13.549 21.6785 13.8888 22.2834 14.4937C22.8883 15.0986 23.2281 15.9191 23.2281 16.7745C23.254 17.324 23.1171 17.8689 22.8346 18.3409C22.552 18.8129 22.1364 19.191 21.6399 19.4278C21.5232 19.4886 21.4279 19.5837 21.3667 19.7002C21.3056 19.8167 21.2816 19.9492 21.2978 20.0797C21.3141 20.2103 21.37 20.3328 21.4579 20.4307C21.5458 20.5287 21.6615 20.5974 21.7896 20.6277C23.1621 20.9961 24.3929 21.7673 25.323 22.8418C26.2531 23.9164 26.8399 25.2449 27.0078 26.6561C26.107 27.6097 25.0212 28.3694 23.8167 28.8887C22.6122 29.4081 21.3143 29.6761 20.0026 29.6765ZM28.0528 25.3601C27.7342 24.1368 27.1449 23.0006 26.3284 22.0356C25.5118 21.0706 24.4889 20.3013 23.3352 19.7845C23.7274 19.3901 24.0347 18.9196 24.2382 18.4019C24.4416 17.8843 24.537 17.3304 24.5183 16.7745C24.5183 15.5769 24.0426 14.4283 23.1957 13.5814C22.3489 12.7346 21.2003 12.2588 20.0026 12.2588C18.805 12.2588 17.6564 12.7346 16.8096 13.5814C15.9627 14.4283 15.4869 15.5769 15.4869 16.7745C15.4683 17.3304 15.5636 17.8843 15.7671 18.4019C15.9706 18.9196 16.2779 19.3901 16.6701 19.7845C15.5163 20.3013 14.4934 21.0706 13.6769 22.0356C12.8604 23.0006 12.271 24.1368 11.9524 25.3601C10.9805 23.9029 10.4224 22.2092 10.3375 20.4596C10.2527 18.7101 10.6443 16.9703 11.4706 15.4259C12.297 13.8814 13.5271 12.5902 15.0297 11.6901C16.5323 10.7899 18.251 10.3144 20.0026 10.3144C21.7542 10.3144 23.473 10.7899 24.9756 11.6901C26.4782 12.5902 27.7083 13.8814 28.5346 15.4259C29.361 16.9703 29.7526 18.7101 29.6678 20.4596C29.5829 22.2092 29.0247 23.9029 28.0528 25.3601ZM36.1301 22.5804C35.6197 22.5804 35.1208 22.4291 34.6965 22.1455C34.2722 21.862 33.9414 21.459 33.7461 20.9875C33.5508 20.516 33.4997 19.9971 33.5993 19.4966C33.6988 18.996 33.9446 18.5363 34.3055 18.1754C34.6664 17.8145 35.1261 17.5688 35.6267 17.4692C36.1272 17.3696 36.6461 17.4207 37.1176 17.616C37.5891 17.8113 37.9921 18.1421 38.2756 18.5664C38.5592 18.9908 38.7105 19.4896 38.7105 20C38.7105 20.6844 38.4386 21.3407 37.9547 21.8246C37.4708 22.3085 36.8145 22.5804 36.1301 22.5804ZM7.93477 31.1557L5.35438 33.7361C5.29752 33.7937 5.25239 33.8619 5.22149 33.9367C4.81779 33.6839 4.35148 33.549 3.87517 33.5471C3.36481 33.5471 2.86592 33.6984 2.44158 33.9819C2.01723 34.2655 1.6865 34.6685 1.49119 35.14C1.29589 35.6115 1.24479 36.1303 1.34436 36.6309C1.44392 37.1314 1.68968 37.5912 2.05055 37.9521C2.41143 38.313 2.87121 38.5587 3.37176 38.6583C3.87231 38.7578 4.39114 38.7067 4.86264 38.5114C5.33415 38.3161 5.73715 37.9854 6.02069 37.5611C6.30422 37.1367 6.45556 36.6378 6.45556 36.1275C6.45444 35.6514 6.32039 35.1851 6.0685 34.7811C6.14335 34.7502 6.21148 34.7051 6.26913 34.6483L8.84952 32.0679C8.96703 31.9462 9.03206 31.7832 9.03059 31.6141C9.02912 31.445 8.96127 31.2832 8.84166 31.1635C8.72206 31.0439 8.56026 30.9761 8.39112 30.9746C8.22197 30.9732 8.05902 31.0382 7.93735 31.1557H7.93477ZM3.87517 37.4177C3.61999 37.4177 3.37054 37.342 3.15837 37.2002C2.9462 37.0585 2.78083 36.857 2.68318 36.6212C2.58553 36.3854 2.55998 36.126 2.60976 35.8758C2.65954 35.6255 2.78242 35.3956 2.96286 35.2152C3.1433 35.0347 3.37319 34.9118 3.62346 34.8621C3.87374 34.8123 4.13315 34.8378 4.36891 34.9355C4.60466 35.0331 4.80616 35.1985 4.94793 35.4107C5.0897 35.6228 5.16537 35.8723 5.16537 36.1275C5.16537 36.4696 5.02943 36.7978 4.78748 37.0398C4.54552 37.2817 4.21735 37.4177 3.87517 37.4177Z" fill="white"/>
<path d="M10.5028 28.5757L9.21257 29.8659C9.15095 29.9254 9.10181 29.9966 9.068 30.0753C9.03419 30.154 9.01639 30.2387 9.01565 30.3243C9.01491 30.41 9.03123 30.4949 9.06366 30.5742C9.0961 30.6535 9.144 30.7255 9.20457 30.7861C9.26514 30.8466 9.33717 30.8945 9.41645 30.927C9.49573 30.9594 9.58067 30.9757 9.66633 30.975C9.75198 30.9742 9.83663 30.9564 9.91534 30.9226C9.99404 30.8888 10.0652 30.8397 10.1247 30.7781L11.4149 29.4879C11.5324 29.3662 11.5975 29.2033 11.596 29.0341C11.5945 28.865 11.5267 28.7032 11.4071 28.5836C11.2875 28.464 11.1257 28.3961 10.9565 28.3946C10.7874 28.3932 10.6244 28.4582 10.5028 28.5757ZM35.4726 5.16315C35.6437 5.16311 35.8077 5.09512 35.9287 4.97414L37.2189 3.68394C37.2805 3.62443 37.3296 3.55325 37.3634 3.47454C37.3972 3.39584 37.415 3.31119 37.4158 3.22553C37.4165 3.13988 37.4002 3.05493 37.3678 2.97565C37.3353 2.89637 37.2874 2.82434 37.2269 2.76377C37.1663 2.7032 37.0943 2.6553 37.015 2.62287C36.9357 2.59043 36.8508 2.57411 36.7651 2.57485C36.6795 2.5756 36.5948 2.59339 36.5161 2.6272C36.4374 2.66101 36.3662 2.71016 36.3067 2.77177L35.0165 4.06197C34.9263 4.15218 34.8649 4.26712 34.84 4.39224C34.8151 4.51736 34.8279 4.64704 34.8767 4.7649C34.9255 4.88276 35.0082 4.9835 35.1143 5.05439C35.2203 5.12527 35.345 5.16312 35.4726 5.16315Z" fill="white"/>
</svg>
