<svg width="270" height="40" viewBox="0 0 270 40" fill="none" xmlns="http://www.w3.org/2000/svg">
<g clip-path="url(#clip0_6246_706)">
<path d="M5.55816 4.4217C8.3549 3.71422 11.2677 4.09559 14.1197 4.00716C17.7179 4.11218 21.3713 3.68658 24.9198 4.46039C28.9988 5.70952 31.7845 9.8162 32.0332 13.9947C32.1935 17.2392 32.2875 20.7876 30.3585 23.5843C28.5401 26.5303 25.0966 28.0226 21.7196 28.1387C17.1983 28.2658 12.6716 28.1553 8.1504 28.1884C8.14487 26.2539 8.14487 24.3194 8.1504 22.3794C12.5334 22.3573 16.9165 22.4292 21.2995 22.3573C23.7646 22.4126 26.1413 20.3731 26.2297 17.8693C26.3679 15.57 26.4784 12.8948 24.765 11.104C23.5269 9.61722 21.3935 9.87699 19.6635 9.79961C15.6176 9.88805 11.5662 9.66696 7.53135 9.91016C6.32091 9.92674 5.74608 11.209 5.84557 12.2647C5.78477 20.1962 5.84005 28.1332 5.82346 36.0646C3.88343 36.0646 1.9434 36.0646 0.00337326 36.0591C0.0254819 28.0061 -0.0297896 19.9585 0.0254819 11.911C-0.0629526 8.53942 2.29161 5.30051 5.55816 4.4217Z" fill="white"/>
<path d="M228.639 8.94846C231.629 5.51057 236.305 3.99613 240.765 4.02377C245.198 4.02377 249.636 3.94639 254.064 4.05693C255.716 4.02929 256.744 5.79798 256.628 7.29584C256.65 16.8854 256.623 26.4751 256.639 36.0591C254.688 36.0647 252.748 36.0647 250.803 36.0647C250.808 33.4393 250.803 30.8139 250.803 28.194C243.982 28.1885 237.156 28.1885 230.33 28.194V36.0647H224.51C224.538 30.5541 224.449 25.0435 224.549 19.533C224.615 15.6695 226.041 11.8226 228.639 8.94846ZM231.552 14.6856C230.264 17.0347 230.319 19.7817 230.314 22.3794C237.145 22.385 243.977 22.3794 250.803 22.3794C250.808 18.1899 250.803 14.0058 250.814 9.81622C247.448 9.80517 244.087 9.81622 240.727 9.79964C237.128 9.71673 233.331 11.4688 231.552 14.6856Z" fill="white"/>
<path d="M263.435 4.01269C265.375 4.00163 267.315 4.00163 269.255 4.01269C269.255 14.6967 269.255 25.3751 269.261 36.0591C267.315 36.0646 265.375 36.0646 263.43 36.0646C263.435 25.3807 263.43 14.6967 263.435 4.01269Z" fill="white"/>
<path d="M36.9512 16.2941C38.2667 13.4697 41.4669 11.8447 44.5123 11.8889C48.8401 11.8613 53.1679 11.8834 57.5012 11.8889C57.4956 13.8179 57.4956 15.7469 57.5012 17.6814C53.0021 17.7532 48.4974 17.5874 44.0038 17.7477C42.7602 17.6648 41.9312 18.8421 42.0196 19.9917C41.9477 25.3475 42.0251 30.7033 41.992 36.0647H36.1774C36.1719 31.0847 36.1829 26.1103 36.1719 21.1303C36.194 19.4998 36.205 17.7864 36.9512 16.2941Z" fill="white"/>
<path d="M63.6376 11.8889C68.098 11.9166 72.5584 11.7894 77.0188 11.9442C80.5341 12.0658 83.8117 14.8017 84.2815 18.3336C84.6076 21.4675 84.4086 24.629 84.4418 27.7684C84.4749 30.637 83.1318 33.6935 80.4898 35.0422C77.5715 36.5069 74.1999 35.9652 71.0605 36.0647C67.7111 35.9541 63.9416 36.6395 61.0564 34.506C57.3145 31.9027 56.9663 26.0163 59.868 22.6724C61.3493 21.169 63.3336 19.9917 65.5057 20.0581C69.1481 19.9917 72.796 20.0581 76.4384 20.0415C76.4329 21.8765 76.4329 23.717 76.4384 25.5576C72.8016 25.6129 69.1592 25.4747 65.5223 25.6184C63.5547 25.6571 62.8085 28.4317 64.0963 29.725C65.2625 30.7199 66.882 30.521 68.308 30.5541C71.0937 30.4878 73.8904 30.6204 76.6761 30.4933C77.8755 30.5541 78.8593 29.4597 78.8593 28.299C78.9809 25.5465 78.9312 22.7829 78.8925 20.036C78.9809 18.715 77.9308 17.3663 76.549 17.4437C72.2489 17.3442 67.9432 17.4437 63.6376 17.4106C63.6431 15.57 63.6431 13.7295 63.6376 11.8889Z" fill="white"/>
<path d="M87.3877 11.8834C90.0352 11.8778 92.6772 11.8889 95.3191 11.8723C97.4968 14.1992 99.6359 16.5704 101.775 18.936C103.958 16.598 106.097 14.2214 108.269 11.8778C110.933 11.8834 113.603 11.8778 116.273 11.8834C112.796 15.7137 109.297 19.5219 105.815 23.3467C109.762 27.5639 113.68 31.8032 117.588 36.0591C114.935 36.0757 112.282 36.037 109.634 36.0923C107.004 33.3011 104.439 30.4491 101.836 27.6358C99.2434 30.438 96.6733 33.2513 94.0921 36.0591C91.4059 36.0647 88.7253 36.0647 86.0391 36.0591C89.9578 31.7811 93.8987 27.5197 97.7898 23.2196C94.3353 19.4279 90.8422 15.6695 87.3877 11.8834Z" fill="white"/>
<path d="M126.51 11.9718C130.324 11.7728 134.148 11.911 137.968 11.8944C141.671 11.7562 145.346 14.6138 145.833 18.3446C146.292 21.2795 145.949 24.2697 146.043 27.2323C146.203 30.3275 144.866 33.7764 141.853 35.0642C139.15 36.6395 135.934 35.9099 132.971 36.0647C129.318 35.9431 125.139 36.7279 122.06 34.2462C119.899 32.6434 119.131 29.8466 119.214 27.2654C119.28 24.1371 118.993 20.9811 119.468 17.8803C120.082 14.5751 123.238 12.2039 126.51 11.9718ZM125.957 18.0406C124.857 18.6376 125.095 20.0691 125.023 21.1137C125.111 23.6838 124.841 26.2816 125.2 28.8351C125.498 30.3606 127.35 30.2501 128.544 30.2722C131.855 30.1948 135.176 30.3883 138.482 30.1727C140.002 30.1506 140.272 28.393 140.223 27.2157C140.151 24.4466 140.416 21.6499 140.04 18.9029C139.283 17.2613 137.183 17.7919 135.735 17.6758C132.49 17.8914 129.124 17.2723 125.957 18.0406Z" fill="white"/>
<path d="M152.59 12.1321C155.497 11.6623 158.459 11.9497 161.389 11.8778C162.063 11.8723 162.743 11.8723 163.428 11.8723C166.463 11.8557 169.668 11.7728 172.46 13.1601C175.566 14.8072 177.688 18.1677 177.76 21.6996C177.915 26.4861 177.782 31.2781 177.821 36.0646H172.006C171.979 31.5158 172.062 26.9725 171.979 22.4292C171.957 20.1796 170.182 17.8472 167.828 17.7864C164.174 17.5487 160.504 17.7642 156.851 17.6979C156.79 23.8165 156.84 29.9406 156.818 36.0646H151.003C151.003 29.2331 150.992 22.4071 150.992 15.581C150.992 14.7133 151.07 13.8234 151.479 13.0441C151.838 12.7235 152.208 12.4195 152.59 12.1321Z" fill="white"/>
<path d="M183.174 11.0322C185.96 5.72613 191.056 1.43706 197.014 0.276357C200.209 -0.171342 203.459 -0.0276363 206.659 0.353737C200.59 1.09438 194.101 2.50933 189.757 7.16319C187.341 9.46801 186.551 13.6078 188.502 16.4101C192.686 19.3727 198.401 19.1571 202.314 22.595C203.796 23.7778 204.956 25.4028 205.47 27.2378C205.94 28.9015 205.194 30.5486 204.774 32.1404C201.822 29.1502 197.257 30.6536 193.769 28.8573C192.471 28.3709 191.581 27.282 190.79 26.1987C191.995 27.0996 193.266 28.1498 194.864 28.1498C197.727 28.5146 200.717 26.2706 203.37 28.1664C202.502 26.6906 201.541 25.1375 199.91 24.3968C196.942 22.9764 193.576 23.6341 190.42 23.2969C188.568 23.1256 186.949 22.1528 185.423 21.169C185.446 25.2149 186.894 29.3879 190.044 32.0575C193.416 35.1416 198.224 36.3908 202.707 35.6225C198.302 38.0213 192.576 37.5681 188.557 34.611C181.101 29.6034 178.89 18.7923 183.174 11.0322Z" fill="#2765F7"/>
<path d="M199.522 4.41067C204.22 1.90687 210.399 2.54249 214.533 5.87537C217.711 8.09175 219.497 11.7507 220.63 15.3489C223.31 24.7008 217.601 35.313 208.592 38.7288C204.231 40.5361 199.35 40.1105 194.812 39.2981C201.268 39.4031 208.138 37.6344 212.726 32.8534C214.826 30.3883 215.993 26.4253 213.92 23.6009C212.013 22.0865 209.559 21.5061 207.276 20.7931C203.297 19.7209 199.019 17.8582 197.222 13.8676C196.222 11.9829 196.841 9.8107 197.692 8.00332C200.959 11.2588 206.237 9.15297 209.808 11.7949C210.609 12.3808 211.206 13.1933 211.842 13.9505C210.526 13.1325 209.233 12.0437 207.619 11.9497C204.69 11.5573 201.716 13.4973 198.919 11.9276C200.273 14.2656 202.49 16.2719 205.309 16.4488C209.272 16.7473 213.754 16.073 216.943 19.0245C216.838 15.1002 215.666 10.9603 212.632 8.2852C209.205 4.9468 204.214 3.54291 199.522 4.41067Z" fill="#2765F7"/>
</g>
<defs>
<clipPath id="clip0_6246_706">
<rect width="269.261" height="40" fill="white"/>
</clipPath>
</defs>
</svg>
